<?xml version="1.0" encoding="UTF-8" standalone="no"?>
<!DOCTYPE svg PUBLIC "-//W3C//DTD SVG 1.1//EN" "http://www.w3.org/Graphics/SVG/1.1/DTD/svg11.dtd">
<svg width="100%" height="100%" viewBox="0 0 1280 1280" version="1.1" xmlns="http://www.w3.org/2000/svg" xmlnsXlink="http://www.w3.org/1999/xlink" xmlSpace="preserve" xmlnsSerif="http://www.serif.com/" style="fill-rule:evenodd;clip-rule:evenodd;stroke-linecap:round;stroke-linejoin:round;stroke-miterlimit:1.5;">
    <g id="Layer2">
        <g id="Grass-jelly" serifId="Grass jelly">
            <path d="M364.288,858.863L365.944,922.533C365.944,922.533 395.854,918.389 416.333,925.028C436.813,931.668 449.819,958.247 472.523,954.924C495.228,951.601 498.265,938.321 521.525,938.317C544.784,938.312 559.708,936.66 564.15,925.581C568.593,914.503 564.865,888.742 518.749,877.136C496.472,871.53 490.26,884.875 464.78,888.476C444.648,891.321 411.362,858.316 364.288,858.863Z" style="stroke:rgb(225,225,225);stroke-width:5.18px;"/>
            <path d="M366.602,945.362C366.602,945.362 364.886,1026.66 378.384,1047.35C391.881,1068.04 423.186,1094.75 461.692,1092.45L585.8,1089.58C585.8,1089.58 590.985,1055.96 531.229,1038.15C471.474,1020.34 473.237,995.496 449.056,971.501C413.716,936.436 366.602,945.362 366.602,945.362Z" style="stroke:rgb(225,225,225);stroke-width:5.18px;"/>
            <path d="M612.186,1084.96C612.186,1084.96 601.236,1049.23 582.709,1037.23C564.181,1025.23 500.568,1013.49 494.809,980.359C489.051,947.226 520.363,934.197 588.707,975.668C657.051,1017.14 675.558,986.11 697.478,975.929C719.399,965.748 750.161,954.019 792.693,972.014C835.225,990.009 847.471,981.141 847.471,981.141L869.381,975.147C869.381,975.147 870.408,1023.14 856.599,1051.57C856.599,1051.57 829.731,1088.08 770.26,1092.26L612.186,1084.96Z" style="stroke:rgb(225,225,225);stroke-width:5.18px;"/>
            <path d="M870.831,942.503C870.831,942.503 852.103,965.608 820.818,966.777C789.534,967.947 775.773,943.675 733.952,943.672C692.13,943.669 657.33,972.919 633.634,974.089C609.937,975.26 570.469,950.127 587.424,914.723C587.424,914.723 547.35,868.235 600.289,862.369C653.228,856.503 634.499,887.235 682.766,882.545C731.033,877.856 770.197,840.451 819.938,839.848C869.68,839.245 871.417,850.083 871.417,850.083L870.831,942.503Z" style="stroke:rgb(225,225,225);stroke-width:5.18px;"/>
            <path d="M366.57,874.244C366.57,874.244 371.954,863.805 406.883,879.919C441.812,896.033 438.852,896.649 456.458,897.536C456.458,897.536 479.168,906.208 460.042,910.379C460.042,910.379 445.721,911.277 414.648,900.519C383.576,889.762 377.338,884.409 366.57,874.244Z" style="fill:white;"/>
            <path d="M370.321,961.806C370.321,961.806 379.285,950.259 396.212,954.281C413.14,958.304 422.944,960.158 418.912,967.536C414.88,974.914 402.991,976.09 385.874,972.064C368.757,968.038 370.321,961.806 370.321,961.806Z" style="fill:white;"/>
            <path d="M536.931,1077.56C536.931,1077.56 494.19,1064.55 481.344,1051.72C468.497,1038.88 452.634,1011.46 456.262,1004.35C459.89,997.231 470.854,1011.03 486.287,1028.03C501.72,1045.03 528.427,1051.7 539.703,1054.83C550.979,1057.96 558.445,1069.05 562.086,1078.42L536.931,1077.56Z" style="fill:white;"/>
            <path d="M549.995,969.402C549.995,969.402 521.972,955.695 521.54,971.325C521.108,986.955 538.428,990.501 556.555,993.419C574.681,996.336 593.818,1003.58 590.266,995.245C586.714,986.905 569.389,977.956 549.995,969.402Z" style="fill:white;"/>
            <path d="M618.517,874.341C603.666,872.016 590.938,875.66 588.771,885.614C586.604,895.568 600.769,904.205 616.837,904.084C632.904,903.964 637.466,897.97 638.304,891.251C639.142,884.533 630.038,876.145 618.517,874.341Z" style="fill:white;"/>
            <path d="M768.105,868.15C749.973,873.16 722.556,882.647 728.906,890.784C735.257,898.92 745.769,889.305 763.962,887.233C782.155,885.161 802.129,886.795 813.668,874.216C825.207,861.638 822.544,852.923 807.75,853.508C792.955,854.093 782.017,864.306 768.105,868.15Z" style="fill:rgb(236,236,236);"/>
            <path d="M748.721,977.274C724.045,984.569 667.416,996.726 668.855,1007.69C670.294,1018.65 694.511,1013.27 719.545,1009.96C744.578,1006.65 770.649,1002.73 794.445,1006.66C818.241,1010.58 816.794,999.42 802.723,991.138C788.651,982.856 769.003,971.278 748.721,977.274Z" style="fill:white;"/>
        </g>
    </g>
</svg>
